<?xml version="1.0" encoding="UTF-8" standalone="no"?>
<!-- Created with Inkscape (http://www.inkscape.org/) -->

<svg
   width="49.960732mm"
   height="49.174381mm"
   viewBox="0 0 49.960732 49.174381"
   version="1.1"
   id="svg1"
   xml:space="preserve"
   xmlns:xlink="http://www.w3.org/1999/xlink"
   xmlns="http://www.w3.org/2000/svg"
   xmlns:svg="http://www.w3.org/2000/svg"><defs
     id="defs1"><linearGradient
       id="linearGradient8"><stop
         style="stop-color:#236e71;stop-opacity:1;"
         offset="0"
         id="stop8" /><stop
         style="stop-color:#d07048;stop-opacity:1;"
         offset="0.75362319"
         id="stop10" /><stop
         style="stop-color:#236e71;stop-opacity:1;"
         offset="1"
         id="stop9" /></linearGradient><linearGradient
       xlink:href="#linearGradient8"
       id="linearGradient9"
       x1="159.85411"
       y1="214.42934"
       x2="197.16176"
       y2="214.42934"
       gradientUnits="userSpaceOnUse"
       gradientTransform="translate(-129.18472,-62.791634)" /></defs><g
     id="layer1"
     transform="translate(-25.049594,-129.90835)"><path
       style="fill:#000000;fill-opacity:1;stroke-width:0.31221"
       d="m 32.030963,162.3388 c -0.313444,-0.15622 -0.720319,-0.4739 -0.90413,-0.70595 -0.700592,-0.88457 -0.661862,0.0127 -0.661862,-15.36022 0,-15.60357 -0.04781,-14.62342 0.757164,-15.45311 0.830493,-0.85579 0.792937,-0.84945 5.245508,-0.88629 2.716563,-0.0222 4.107223,0.009 4.416521,0.0923 0.248269,0.0688 0.69436,0.30855 0.991268,0.53232 0.602267,0.45444 0.337461,-0.0222 4.516792,8.10931 1.245569,2.42309 2.387133,4.51717 2.536822,4.65347 0.333777,0.30412 0.522539,0.31211 0.778743,0.0311 0.108371,-0.1177 1.560034,-2.88007 3.225904,-6.13846 2.483705,-4.85799 3.118781,-6.01551 3.528386,-6.43103 0.842335,-0.85437 0.966588,-0.8739 5.565278,-0.8739 h 3.98795 l 0.59077,0.30678 c 0.64372,0.3343 1.21333,1.04627 1.41329,1.7662 0.16182,0.58267 0.15561,27.78932 -0.007,28.54535 -0.16352,0.76234 -0.68243,1.41911 -1.41467,1.79049 l -0.59721,0.30279 -2.81638,-9.3e-4 c -2.72774,-9.4e-4 -2.83395,-0.009 -3.374886,-0.26106 -0.307226,-0.14296 -0.714697,-0.44961 -0.905595,-0.68114 -0.677879,-0.82206 -0.68372,-0.87857 -0.68372,-6.61416 0,-3.49724 -0.03775,-5.22889 -0.114982,-5.27663 -0.06314,-0.04 -0.190818,-0.009 -0.283431,0.0688 -0.187353,0.15531 -0.112638,-0.002 -2.691051,5.68334 -2.75656,6.07856 -2.729244,6.03164 -3.87197,6.65123 -0.669582,0.36317 -0.735005,0.37605 -1.904948,0.37605 -1.361946,0 -1.867957,-0.15985 -2.634501,-0.83301 -0.688129,-0.60421 -0.404899,-0.0467 -4.385056,-8.63907 -0.785653,-1.69619 -1.497442,-3.15618 -1.58176,-3.24444 -0.401482,-0.42044 -0.429142,-0.0781 -0.433892,5.36967 -0.0042,4.75012 -0.02309,5.29588 -0.196588,5.6888 -0.311046,0.70422 -0.692504,1.1211 -1.305119,1.42638 -0.574825,0.28636 -0.578278,0.28682 -3.395819,0.28682 -2.810591,0 -2.822399,-9.5e-4 -3.390339,-0.28415 z m 3.127887,-0.26593 c 0.658072,-9.5e-4 0.680209,-0.009 0.951536,-0.4209 0.152729,-0.23085 0.483212,-0.6571 0.734268,-0.94715 0.593032,-0.68527 0.967298,-1.43616 1.175737,-2.35917 0.240498,-1.06491 0.54938,-1.55473 1.227037,-1.94614 l 0.57217,-0.33031 0.0036,-3.20453 c 0.004,-3.51255 -0.0071,-3.4531 0.676557,-3.62367 0.496628,-0.12388 0.793429,0.29302 1.843053,2.58781 1.186227,2.59362 1.341333,2.78008 2.779789,3.34153 0.570571,0.22288 1.40181,0.62457 1.847222,0.89299 1.938152,1.16819 2.966588,0.84004 4.814579,-1.53607 0.235615,-0.30279 0.906003,-1.05253 1.489867,-1.66583 1.312586,-1.37878 1.600824,-1.79452 2.350986,-3.39103 1.05931,-2.25452 2.2521,-3.15156 3.322599,-2.4988 0.783677,0.4779 1.056075,1.36264 1.371067,4.45325 0.44979,4.41282 0.82027,5.57752 2.40186,7.55049 0.79423,0.99072 1.08633,1.55668 1.26988,2.46051 l 0.14028,0.69113 0.42102,0.0356 c 0.7702,0.0643 0.93766,-0.0356 0.93766,-0.55344 0,-0.60739 -0.2932,-1.77118 -0.61861,-2.45555 -0.14398,-0.30278 -0.68407,-1.07111 -1.20013,-1.7072 -1.76771,-2.17881 -2.16654,-3.47966 -2.36376,-7.70984 -0.14438,-3.09614 -0.42626,-4.10457 -1.382013,-4.94372 -1.137508,-0.99875 -2.383898,-0.57428 -3.520512,1.19885 -0.252396,0.39381 -0.866034,1.48684 -1.363652,2.42908 -1.060819,2.00874 -1.95018,3.23792 -3.223197,4.45479 -1.635744,1.56357 -2.824111,1.97398 -4.352099,1.50289 -1.864758,-0.5749 -3.272185,-1.88856 -5.032035,-4.69698 -0.952739,-1.52042 -1.386977,-1.92749 -2.056101,-1.92749 -0.465864,0 -0.821143,0.22554 -1.048575,0.66516 -0.09142,0.17674 -0.31504,1.20226 -0.496961,2.2788 -0.858982,5.08371 -1.805236,7.51045 -3.769858,9.6681 -0.331378,0.36405 -0.905328,0.88225 -1.27539,1.15174 -0.764657,0.55682 -0.72791,0.71022 0.147569,0.61582 0.302877,-0.0311 0.853891,-0.0599 1.224449,-0.0603 z m 26.425787,-0.309 c -0.0391,-0.17802 -0.2943,-0.58534 -0.56698,-0.90482 -0.61549,-0.72104 -0.85686,-1.18815 -1.137623,-2.20128 -0.242229,-0.8741 -0.675915,-1.69948 -0.947798,-1.8038 -0.156852,-0.0599 -0.171601,0.13369 -0.140613,1.85041 l 0.03462,1.91768 0.331912,0.4719 c 0.439618,0.62506 0.95206,0.91026 1.760722,0.98014 0.36348,0.0311 0.67796,0.047 0.69887,0.0356 0.0204,-0.0127 0.006,-0.16729 -0.0324,-0.34583 z m 1.99423,-0.0812 c -0.1061,-0.77401 -0.41822,-1.37773 -1.35219,-2.61534 -1.5237,-2.01913 -1.95236,-3.36871 -2.351636,-7.4038 -0.307938,-3.11227 -0.592035,-4.04735 -1.321205,-4.3494 -0.281298,-0.11625 -0.392912,-0.10208 -0.821725,0.10518 -0.627314,0.30367 -1.123174,0.97144 -1.679243,2.26148 -0.579871,1.34505 -1.083767,2.07046 -2.398569,3.45257 -0.613889,0.64532 -1.422766,1.55244 -1.79748,2.01576 -0.9321,1.15255 -1.596238,1.71346 -2.263427,1.9116 -1.003449,0.2979 -1.450348,0.20244 -2.873124,-0.61321 -0.764395,-0.4382 -2.521633,-1.20467 -2.762264,-1.20467 -0.02131,0 0.264472,0.64589 0.635682,1.43526 l 0.6749,1.43522 0.453844,-0.0679 c 0.59914,-0.0897 1.106246,0.12969 1.904713,0.82394 1.050156,0.91343 1.826532,1.10083 2.736172,0.66051 0.611502,-0.29614 0.986761,-0.78428 1.644009,-2.13891 0.593028,-1.22239 1.127335,-1.83312 2.408994,-2.75372 0.750136,-0.5388 0.77913,-0.57802 1.342892,-1.8173 1.455641,-3.19983 1.550562,-3.37541 1.903766,-3.52171 0.286139,-0.11861 0.377507,-0.11189 0.616815,0.0452 0.154454,0.10118 0.328271,0.30857 0.38612,0.4608 0.0578,0.15222 0.105573,1.64895 0.105973,3.32604 l 6.25e-4,3.04923 0.390915,0.26638 c 0.519019,0.35339 0.856361,0.96096 1.184123,2.13226 0.26451,0.94528 0.45743,1.29949 1.23079,2.25957 0.20942,0.26017 0.43154,0.66106 0.49344,0.89132 l 0.11277,0.41866 0.73218,0.0222 0.73219,0.0222 z m -24.968371,0.17129 c 0.942618,-0.48085 1.216437,-1.27871 1.216437,-3.54446 0,-1.84487 -0.05115,-1.93704 -0.709037,-1.27668 -0.271799,0.27305 -0.403745,0.55438 -0.554895,1.18402 -0.281167,1.17093 -0.710453,2.04846 -1.363062,2.78617 -0.947127,1.07058 -0.947287,1.06877 0.09426,1.06877 0.668636,0 0.995344,-0.0547 1.316289,-0.218 z m 12.428841,-0.16566 c 0.739853,-0.404 1.074464,-0.86354 1.792665,-2.4625 0.317392,-0.70654 0.862373,-1.90415 1.211134,-2.66134 0.348738,-0.75723 0.617015,-1.39392 0.596153,-1.41492 -0.07516,-0.0756 -1.018017,0.63952 -1.365915,1.03573 -0.195481,0.22286 -0.596749,0.90698 -0.89169,1.52091 -0.294974,0.61387 -0.687878,1.29754 -0.873101,1.51925 -0.480286,0.5749 -1.334785,0.97368 -2.086225,0.97368 -0.760913,0 -1.288549,-0.25085 -2.195449,-1.04399 -0.622597,-0.54449 -0.747339,-0.60812 -1.191437,-0.60812 -0.581399,0 -0.581866,-0.0127 0.04519,1.30715 0.798425,1.68459 1.652534,2.23559 3.383969,2.18304 0.852412,-0.0267 1.073047,-0.0747 1.575087,-0.34896 z m 16.15619,-0.65946 c 0.32787,-0.52996 0.33226,-0.55731 0.36854,-2.31823 l 0.0364,-1.78195 -0.64937,-0.24286 c -1.29878,-0.48571 -2.57095,-1.58941 -3.1197,-2.70666 -0.50427,-1.02672 -0.64512,-1.96772 -0.75353,-5.03531 -0.0895,-2.5333 -0.12528,-2.87782 -0.39198,-3.77597 -0.68773,-2.31569 -1.79323,-3.52086 -3.360045,-3.66292 -0.888827,-0.0803 -1.62884,0.27926 -2.491751,1.21114 -0.847742,0.91565 -1.228378,1.53468 -2.310531,3.75754 -1.161658,2.3862 -1.846533,3.49239 -2.716788,4.38798 -0.824584,0.84854 -1.747597,1.34135 -2.722509,1.47028 -0.868395,0.11498 -1.777971,-0.059 -2.695874,-0.5273 -0.760875,-0.38803 -1.698701,-1.40614 -2.932252,-3.18286 -0.656746,-0.94587 -1.352112,-1.85278 -1.545288,-2.01535 -1.270781,-1.0693 -2.755797,-0.94752 -3.607453,0.29568 -0.83365,1.21711 -1.088987,2.00843 -1.713948,5.31178 -0.27504,1.45382 -0.618542,2.99032 -0.763409,3.41435 -0.749869,2.19569 -2.034143,3.78782 -3.87032,4.79801 l -0.71321,0.39248 0.258301,0.38004 c 0.14212,0.20909 0.391137,0.45125 0.553364,0.53807 0.264028,0.14114 0.335907,0.13588 0.684027,-0.052 1.286632,-0.6929 2.984823,-2.61805 3.777369,-4.28222 0.735441,-1.54421 1.468886,-4.26219 1.81643,-6.7312 0.241164,-1.71345 0.473973,-2.43787 0.941028,-2.9289 0.553035,-0.58138 1.03614,-0.65374 1.816269,-0.27216 0.721756,0.35296 0.918869,0.57771 1.913774,2.18056 1.012499,1.63114 1.884808,2.65387 2.860591,3.35384 1.472725,1.05637 2.779193,1.3035 3.96742,0.75031 0.732934,-0.34142 0.975614,-0.52739 1.979361,-1.51847 1.053343,-1.04009 1.867214,-2.24457 3.082077,-4.56134 1.415073,-2.69849 2.17189,-3.57653 3.357975,-3.89592 1.194002,-0.32144 2.630072,0.64763 3.134992,2.1156 0.34141,0.99272 0.45377,1.7559 0.57841,3.92998 0.0598,1.04888 0.15845,2.21363 0.21853,2.58829 0.17625,1.10042 0.6188,2.47922 0.98458,3.06756 0.18705,0.30102 0.34008,0.58463 0.34008,0.63053 0,0.0458 0.36832,0.52583 0.81862,1.06655 1.41441,1.69852 1.82476,2.62061 1.82476,4.10032 v 0.70288 l 0.35656,-0.20822 c 0.19614,-0.11462 0.50593,-0.44961 0.68838,-0.74453 z M 31.829546,159.7442 c 1.765986,-1.08222 2.904549,-2.63144 3.47105,-4.72299 0.122847,-0.45352 0.39744,-1.76935 0.610106,-2.92411 0.675543,-3.66666 1.136411,-4.87137 2.316658,-6.05574 1.736358,-1.74241 3.683337,-1.02961 5.728969,2.09749 1.353526,2.06911 1.942174,2.67939 3.113911,3.22841 0.866459,0.40578 2.13859,0.42177 2.921109,0.0356 1.349245,-0.66441 2.337732,-1.97234 3.987238,-5.27596 1.296773,-2.59709 1.778735,-3.38558 2.524777,-4.13047 0.6495,-0.6485 1.264544,-1.00718 2.030494,-1.1841 1.497777,-0.34586 2.819219,0.35828 3.928499,2.09384 0.99989,1.56437 1.21025,2.6227 1.32444,6.66358 0.0673,2.38057 0.20525,3.2396 0.66634,4.14955 0.40317,0.79569 1.28182,1.63311 2.17446,2.0725 0.92862,0.45711 0.96616,0.41955 0.92773,-0.92576 l -0.028,-0.98171 -0.34274,-0.11989 c -0.50334,-0.17583 -1.07504,-0.60114 -1.35287,-1.00657 -0.46972,-0.68557 -0.66543,-1.43566 -0.83816,-3.213 -0.24076,-2.47784 -0.36925,-3.35499 -0.65834,-4.49448 -1.08768,-4.28776 -3.81264,-6.61102 -6.362836,-5.42481 -1.372177,0.63819 -2.328934,1.86462 -4.087478,5.23937 -1.327677,2.5479 -1.641678,3.03822 -2.487507,3.88433 -1.49621,1.49671 -3.289641,1.62728 -4.913842,0.35784 -0.570175,-0.44565 -1.540058,-1.67963 -2.823389,-3.5922 -1.452087,-2.16405 -2.533099,-3.28382 -3.418634,-3.54124 -1.054893,-0.30678 -1.954682,0.0127 -2.840955,1.01337 -0.734344,0.82778 -2.96396,4.25761 -3.642825,5.60378 -0.643986,1.2769 -0.931007,2.25603 -1.248116,4.25739 -0.192551,1.21523 -0.511644,1.94303 -1.104312,2.51869 l -0.399174,0.38758 0.03241,0.92763 0.03241,0.92767 0.619341,-0.62857 c 0.880582,-0.89367 1.426971,-2.05798 1.912273,-4.07484 0.488055,-2.02819 0.893323,-3.18871 1.718321,-4.9202 0.786783,-1.65129 1.656404,-2.98449 2.401238,-3.68117 0.69313,-0.64828 1.086943,-0.84718 1.231099,-0.62165 0.07295,0.11407 0.03197,0.20557 -0.145571,0.32366 -1.012268,0.67523 -1.787172,1.6977 -2.815768,3.71526 -0.953012,1.86925 -1.302744,2.81583 -1.842167,4.98609 -0.263494,1.0601 -0.625187,2.24963 -0.803832,2.64339 -0.414755,0.91435 -1.168949,1.93877 -1.820159,2.47239 l -0.509916,0.41777 v 0.92292 c 0,0.61717 0.04174,0.92291 0.125518,0.92291 0.06904,0 0.378751,-0.15531 0.688374,-0.34494 z m -0.138923,-5.55925 c 0.111295,-0.24862 0.280367,-0.99218 0.375643,-1.6521 0.403613,-2.79575 0.901487,-3.90581 3.482019,-7.76378 1.300372,-1.94405 1.868647,-2.59371 2.643202,-3.02178 0.494967,-0.27349 0.712263,-0.32544 1.360059,-0.32544 0.646512,0 0.865367,0.0523 1.355743,0.32322 0.819763,0.4531 1.780349,1.51762 2.988886,3.31227 2.464633,3.65999 3.327319,4.44999 4.866212,4.45599 0.748932,0.004 1.204267,-0.17493 1.942859,-0.75874 0.796263,-0.62942 1.3992,-1.53351 2.839022,-4.25708 0.695755,-1.31603 1.483463,-2.69894 1.75047,-3.07311 0.654684,-0.91748 1.677454,-1.84404 2.452748,-2.22203 0.846226,-0.41245 2.070561,-0.43375 3.037511,-0.0523 0.74998,0.29568 1.77613,1.19814 2.38733,2.09921 1.32673,1.95595 1.89916,3.96167 2.25839,7.91308 0.17785,1.95582 0.29027,2.50701 0.63934,3.13287 0.23241,0.4169 0.81152,0.88235 1.26451,1.0167 l 0.24783,0.0737 v -1.61507 -1.61511 l -0.42847,-0.48684 c -0.58393,-0.66343 -0.94348,-1.7013 -1.22164,-3.52632 -0.61608,-4.04176 -1.29836,-5.72672 -3.0309,-7.4844 -1.20408,-1.22153 -2.05126,-1.64312 -3.3019,-1.64312 -2.194479,0 -3.626914,1.41732 -5.89973,5.83745 -1.740461,3.38481 -2.694453,4.60293 -3.880747,4.95522 -0.796371,0.23663 -1.14552,0.20866 -1.905485,-0.15059 -1.157291,-0.54744 -2.087984,-1.64157 -3.565908,-4.192 -1.414682,-2.44125 -2.106407,-3.32124 -2.987819,-3.80095 -1.3826,-0.75252 -2.588585,-0.26505 -4.4394,1.79363 -3.157582,3.51256 -4.782687,5.85316 -5.633688,8.11408 -0.257502,0.68406 -0.271087,0.83989 -0.271087,3.10281 v 2.38256 l 0.236235,-0.21 c 0.12995,-0.11553 0.327339,-0.41334 0.438687,-0.66205 z m 35.411164,-11.70094 c -0.62838,-0.95192 -0.83626,-1.3731 -1.45659,-2.95124 -1.10672,-2.81547 -2.39066,-4.04007 -4.74143,-4.52223 -1.719052,-0.35251 -3.450331,0.19757 -4.806552,1.52735 -0.814033,0.79817 -1.841947,2.32377 -2.54749,3.78097 -1.80615,3.73033 -1.946196,3.98919 -2.481978,4.58855 -1.243598,1.39127 -2.5045,1.43424 -3.629177,0.12388 -0.25799,-0.30055 -1.000721,-1.60094 -1.729549,-3.02808 -1.376686,-2.69574 -1.719928,-3.24266 -2.594915,-4.13472 -0.763761,-0.77874 -1.571837,-1.16654 -2.447438,-1.17466 -1.2166,-0.009 -2.001707,0.54391 -3.948773,2.79269 -0.606253,0.70019 -1.903803,2.0661 -2.883472,3.03533 -0.979663,0.96923 -2.014662,2.07694 -2.299989,2.46154 l -0.518816,0.69931 0.0015,1.55859 0.0015,1.55855 0.576686,-1.0713 c 0.760341,-1.41248 1.641131,-2.64548 3.368203,-4.71499 3.015208,-3.61306 4.295601,-4.49012 5.881841,-4.02903 1.392799,0.40491 2.049127,1.13191 4.051809,4.48796 1.797173,3.01166 2.785627,3.96212 4.133207,3.97418 0.723883,0.009 1.364201,-0.33873 2.03084,-1.09571 0.539213,-0.61209 0.950808,-1.30663 2.203773,-3.71895 1.739951,-3.34992 2.985382,-4.93152 4.469491,-5.67592 0.709382,-0.35561 0.832735,-0.38181 1.812588,-0.38181 1.001331,0 1.093161,0.0222 1.927391,0.43287 0.67103,0.33119 1.08214,0.6409 1.75719,1.32289 1.76077,1.77899 2.56823,3.70057 3.13216,7.45406 0.25142,1.67327 0.54068,2.71527 0.91375,3.29138 l 0.2496,0.38536 0.0293,-3.12156 0.0293,-3.12159 z m -17.126996,2.78161 c 0.653559,-0.33387 1.217774,-1.1894 2.463098,-3.73521 0.681541,-1.39327 1.535214,-2.9793 1.897053,-3.52449 1.132366,-1.70619 2.326603,-2.75523 3.724592,-3.27183 0.88357,-0.32633 2.680003,-0.34807 3.575263,-0.0443 1.53051,0.52161 2.6054,1.30605 3.37443,2.46265 0.23108,0.34762 0.67419,1.25141 0.9847,2.00859 0.6321,1.54143 1.30491,2.92173 1.47559,3.02721 0.0754,0.0467 0.11289,-0.54267 0.11289,-1.77294 v -1.8427 l -0.48938,-0.46892 c -0.61179,-0.58626 -0.85874,-1.06708 -1.22367,-2.38252 -0.46586,-1.67931 -0.9073,-2.24365 -1.96577,-2.51299 -0.24827,-0.063 -0.97188,-0.27305 -1.60794,-0.46683 -1.00759,-0.30678 -1.31246,-0.35118 -2.368036,-0.34764 -0.999898,0.004 -1.32698,0.0492 -1.872387,0.2615 -0.959306,0.37294 -2.01839,1.11006 -2.821753,1.96376 -0.766739,0.81483 -1.208915,1.59564 -3.622774,6.39699 -1.078925,2.14604 -1.416468,2.72382 -1.692056,2.89644 -0.452312,0.28326 -1.007325,0.20201 -1.399834,-0.20466 -0.162592,-0.16821 -1.074482,-1.81517 -2.026565,-3.65947 -0.952087,-1.84423 -1.812828,-3.46388 -1.912775,-3.59921 -0.2377,-0.32188 -1.344316,-1.03702 -2.109178,-1.36317 -0.425145,-0.1811 -0.891302,-0.27303 -1.563503,-0.30767 -0.893471,-0.0458 -1.006719,-0.0267 -1.68754,0.29214 -0.779832,0.36495 -1.449892,0.98627 -3.657108,3.39118 -1.35063,1.47157 -2.171018,2.1136 -3.52768,2.76064 l -1.0188,0.48592 v 1.54687 1.54688 l 0.518353,-0.59017 c 0.285072,-0.32453 1.184611,-1.23445 1.998908,-2.02196 0.814297,-0.78751 1.990234,-2.03053 2.613199,-2.7623 1.364059,-1.60228 2.223339,-2.41306 3.025686,-2.8549 0.525859,-0.28945 0.708898,-0.3303 1.48116,-0.3303 0.793248,0 0.950009,0.0354 1.571798,0.3747 1.395265,0.75657 2.458647,2.19429 4.122137,5.57305 0.913396,1.85527 1.238729,2.39518 1.712039,2.84137 0.550714,0.51913 1.200844,0.5982 1.915852,0.23309 z m -18.244237,-4.39096 c 1.407827,-0.62261 2.345333,-1.43246 4.844449,-4.18499 1.660933,-1.82932 2.68616,-2.42281 4.152066,-2.40369 0.886656,0.009 1.787355,0.25707 2.68922,0.73331 l 0.670629,0.35428 -0.465399,-0.8865 c -0.420217,-0.80045 -0.522806,-0.91592 -1.056129,-1.18888 -0.729653,-0.37337 -1.715652,-0.56392 -2.418748,-0.46718 -0.292531,0.04 -0.893088,0.24506 -1.334478,0.45472 -0.713858,0.33919 -1.015509,0.59833 -2.729998,2.34384 -2.058201,2.0954 -2.758295,2.63265 -4.197418,3.22108 l -0.86905,0.35517 v 0.96959 c 0,0.5333 0.02309,0.9696 0.05248,0.9696 0.02841,0 0.32694,-0.12171 0.66299,-0.27038 z m 0.734489,-2.82816 c 1.106372,-0.54906 1.192412,-0.61961 3.01131,-2.47095 2.091557,-2.12888 2.837537,-2.70343 3.947875,-3.04067 0.873302,-0.26504 2.041651,-0.23752 2.76712,0.0657 0.232594,0.0972 0.445802,0.15404 0.473772,0.12607 0.08098,-0.0808 -0.700318,-1.41458 -0.98523,-1.68154 -0.487926,-0.45715 -0.991917,-0.58356 -2.327594,-0.58356 h -1.252733 l -0.139849,0.46809 c -0.35513,1.18885 -0.981864,1.86919 -2.269988,2.46434 -1.0727,0.49564 -1.422753,0.81437 -1.870331,1.70315 -0.668417,1.32729 -1.441989,1.96487 -2.390684,1.97043 l -0.41307,0.002 v 0.77097 c 0,0.58989 0.0364,0.77099 0.155217,0.77099 0.08537,0 0.667743,-0.25439 1.294149,-0.56523 z m 35.117364,-1.67351 c 0,-1.43553 -0.006,-1.47357 -0.28428,-1.73472 -0.15641,-0.14695 -0.51164,-0.70706 -0.78942,-1.24488 -0.41356,-0.80066 -0.59549,-1.03516 -1.00386,-1.29414 -0.27433,-0.17401 -0.55436,-0.31653 -0.62246,-0.31653 -0.47969,0 -1.3488,-0.40003 -1.81324,-0.83436 l -0.52094,-0.48734 h -2.2943 c -2.097868,0 -2.334784,0.0182 -2.767062,0.22864 -0.260034,0.12606 -0.601335,0.38182 -0.758483,0.56846 -0.220164,0.2615 -1.050346,1.75185 -1.354464,2.43136 -0.02176,0.0492 0.225314,-0.11317 0.549647,-0.36141 2.025392,-1.54806 3.845283,-1.78226 6.968832,-0.89677 1.83618,0.52056 2.08672,0.62826 2.50223,1.07584 0.41067,0.44218 0.61097,0.88229 0.90918,1.9966 0.14332,0.53548 0.34865,1.1439 0.4563,1.35203 0.25586,0.4949 0.62033,0.98423 0.73299,0.98423 0.0492,0 0.0895,-0.66044 0.0895,-1.46772 z m -35.667153,0.14259 c 0.500416,-0.13896 0.940669,-0.62998 1.472676,-1.64242 0.484934,-0.92288 0.940923,-1.35202 1.917992,-1.80513 1.206477,-0.55953 1.512954,-0.81056 1.875695,-1.53644 0.491181,-0.98296 0.466132,-1.07046 -0.306561,-1.07046 h -0.638872 l -0.241298,0.49667 c -0.284805,0.5864 -0.680581,0.85454 -1.722667,1.16765 -1.057112,0.31742 -1.224053,0.45435 -1.650197,1.35241 -0.408808,0.86144 -0.775637,1.29181 -1.278738,1.50021 -0.318459,0.13188 -0.327605,0.15677 -0.327605,0.89331 0,0.84932 0.04519,0.88154 0.899597,0.64424 z m 0.227134,-3.17425 c 0.508456,-1.03099 0.847635,-1.32843 1.85077,-1.62275 0.923265,-0.27082 1.312693,-0.48713 1.488065,-0.82626 0.08817,-0.17056 0.160358,-0.33743 0.160358,-0.37072 0,-0.0354 -0.661331,-0.0603 -1.469574,-0.0603 -1.325868,0 -1.51706,0.0267 -1.955009,0.25618 -0.266959,0.14114 -0.63409,0.46732 -0.815838,0.72526 -0.31757,0.45081 -0.331911,0.52278 -0.369648,1.84958 l -0.03907,1.38047 0.348292,-0.20555 c 0.247203,-0.14604 0.479821,-0.47257 0.801876,-1.12568 z m 35.412289,-0.22064 c -0.0591,-1.0761 -0.21,-1.57259 -0.61861,-2.03773 -0.39744,-0.45246 -0.79785,-0.5606 -2.29458,-0.61974 l -1.45401,-0.0572 0.27819,0.28991 c 0.18132,0.18913 0.57303,0.37383 1.12486,0.53099 1.2619,0.35916 1.74819,0.76411 2.37434,1.97645 0.28476,0.55137 0.54738,1.00249 0.58366,1.00249 0.036,0 0.0391,-0.48823 0.006,-1.08501 z"
       id="path1-4" /><text
       xml:space="preserve"
       style="font-style:normal;font-variant:normal;font-weight:normal;font-stretch:normal;font-size:15.4081px;font-family:Merriweather;-inkscape-font-specification:'Merriweather, @opsz=144,wght=600';font-variant-ligatures:normal;font-variant-caps:normal;font-variant-numeric:normal;font-variant-east-asian:normal;font-variation-settings:'opsz' 144, 'wght' 600;text-align:start;writing-mode:lr-tb;direction:ltr;text-anchor:start;fill:#000000;fill-opacity:1;stroke-width:0.823455"
       x="24.028809"
       y="175.78925"
       id="text12-2"><tspan
         id="tspan12-3"
         x="24.028809"
         y="175.78925"
         style="font-style:normal;font-variant:normal;font-weight:normal;font-stretch:normal;font-family:Zain;-inkscape-font-specification:Zain;fill:#000000;fill-opacity:1;stroke-width:0.82346">mapyta</tspan></text><path
       style="mix-blend-mode:normal;fill:url(#linearGradient9);stroke:none;stroke-width:0.631529"
       d="m 65.413285,162.27904 c -0.005,-0.14995 -0.004,-0.43939 0.004,-0.64323 0.009,-0.20385 -0.0403,-0.63195 -0.10834,-0.95137 -0.27637,-1.29836 -0.57568,-1.85252 -2.01197,-3.72503 -1.44257,-1.8807 -1.7785,-3.05433 -2.03241,-7.10064 -0.2127,-3.38988 -0.43583,-4.22093 -1.35663,-5.05281 -0.43278,-0.391 -0.79471,-0.54745 -1.2664,-0.54745 -0.50958,0 -0.91044,0.19104 -1.42806,0.68059 -0.56862,0.53778 -0.94106,1.10772 -2.06759,3.16401 -0.50083,0.91418 -1.09653,1.93767 -1.32378,2.27444 -1.1859,1.75744 -2.62788,3.17283 -3.8407,3.76991 -1.37356,0.67618 -3.08381,0.29058 -4.76659,-1.07474 -0.73034,-0.59256 -1.4326,-1.45074 -2.64557,-3.23294 -1.2671,-1.86173 -1.49727,-2.0811 -2.18348,-2.0811 -0.39818,0 -0.51736,0.0351 -0.7002,0.20589 -0.40783,0.38106 -0.44984,0.5282 -0.9877,3.45898 -0.49159,2.67867 -1.00837,4.51046 -1.68669,5.97869 -0.61536,1.33195 -1.609928,2.77932 -2.617478,3.63019 -0.32442,0.27398 -0.766352,0.5656 -0.924892,0.7052 -0.27015,0.23789 -0.04763,0.40441 -0.185019,0.40518 -0.034,1.9e-4 -0.467715,0.14909 -0.517729,-0.0251 -0.05847,-0.20358 -0.526319,-0.29435 -0.400099,-0.29435 0.49396,0 2.306587,-1.65943 3.235247,-2.9544 1.29898,-1.81137 2.14515,-4.3949 2.80967,-8.57851 0.26804,-1.68746 0.55532,-2.37807 1.17634,-2.82793 0.43509,-0.31519 0.84593,-0.31569 1.49966,-0.002 0.6607,0.31719 0.92074,0.61444 2.06189,2.35687 1.43278,2.18769 2.54927,3.25159 4.09191,3.89918 0.43588,0.18298 0.64067,0.2172 1.30377,0.21786 0.74734,6.4e-4 0.8187,-0.015 1.42787,-0.31611 0.49463,-0.24445 0.83778,-0.50622 1.5008,-1.14483 1.3027,-1.25473 1.90712,-2.11299 3.32046,-4.71502 0.9226,-1.69858 1.69063,-2.87218 2.15288,-3.2898 1.07369,-0.97002 2.38012,-0.98795 3.40127,-0.0466 1.04017,0.95879 1.3242,1.96835 1.57577,5.60091 0.15424,2.22723 0.26721,2.96444 0.61939,4.04215 0.33786,1.03389 0.87736,2.00021 1.67424,2.99879 1.55175,1.94453 1.941193,2.5665 1.945293,4.31642 l 0.03507,0.61573 -0.453534,0.0463 c -0.297547,0.0304 -0.32988,0.23934 -0.34013,-0.0238 z m -34.368348,-1.54702 c -0.04209,-0.33305 -0.152306,-0.6408 0.260373,-0.76676 0.766232,-0.23386 2.437185,-1.5746 3.312105,-3.20302 0.49102,-0.91392 0.70248,-1.64851 1.23318,-4.2837 0.88081,-4.37369 1.15397,-5.12847 2.29311,-6.33602 1.11215,-1.17893 2.24659,-1.35618 3.49963,-0.54684 0.73942,0.47758 1.42924,1.23879 2.37055,2.6159 1.33328,1.95052 1.95348,2.58819 2.99778,3.08222 0.91903,0.43477 2.18489,0.43442 3.07458,-6.3e-4 0.65809,-0.32197 2.16274,-1.80049 2.454,-2.41138 0.98277,-2.06124 2.44877,-4.81426 2.72853,-5.12393 0.14947,-0.16543 0.3675,-0.51728 0.48452,-0.78187 0.25309,-0.57232 1.099,-1.44272 1.73345,-1.7837 0.98729,-0.53059 2.07796,-0.59783 2.95645,-0.18223 0.91572,0.43321 2.05934,1.77802 2.56404,3.01515 0.44297,1.08577 0.5144,1.68393 0.77035,6.45147 0.0968,1.80288 0.377823,2.25299 0.798323,3.05321 0.6316,1.20193 1.780741,2.47414 2.806711,2.48632 0.21893,0.002 0.283143,-0.0142 0.350503,0.35482 0.03456,0.18932 -0.16698,0.37883 -0.10659,0.55151 -0.51555,-0.14863 -1.41937,-0.48704 -1.90295,-0.79903 -0.74065,-0.47784 -1.520467,-1.42247 -1.884177,-2.11576 -0.54749,-1.04366 -0.71504,-2.17596 -0.84537,-5.71345 -0.0874,-2.37246 -0.28985,-3.32408 -1.0018,-4.70923 -0.7022,-1.36618 -1.70187,-2.08117 -2.90973,-2.08111 -0.84705,4e-5 -1.25314,0.20796 -2.15112,1.10144 -0.89818,0.89365 -1.20508,1.37748 -2.50078,3.94246 -0.57877,1.14573 -1.3022,2.46138 -1.60763,2.92366 -1.74864,2.64675 -3.98604,3.4712 -6.31018,2.32521 -0.77465,-0.38196 -1.72552,-1.37734 -2.99574,-3.13597 -0.52091,-0.72121 -1.12216,-1.52208 -1.33611,-1.77973 -0.80437,-0.96866 -2.06084,-1.28916 -3.01503,-0.76908 -0.50632,0.27597 -0.7092,0.49663 -1.17033,1.27281 -0.50668,0.85287 -0.77395,1.76242 -1.35725,4.61877 -0.60362,2.95592 -0.82196,3.77733 -1.23589,4.64961 -0.77645,1.63622 -2.058418,3.08852 -3.581528,3.86303 -0.19472,0.099 -0.436522,0.18647 -0.458742,0.24436 -0.0533,0.13889 -0.317238,-0.0285 -0.317238,-0.0285 z"
       id="path7" /></g></svg>
